<mxfile host="app.diagrams.net" modified="2021-12-17T23:56:57.942Z" agent="5.0 (X11)" etag="Zp6nT_7HXfkTX-v_veQV" version="16.0.0" type="github" pages="3">
  <diagram id="tfzxgMIFUyRC4YkPrTR2" name="Class">
    <mxGraphModel dx="375" dy="212" grid="1" gridSize="10" guides="1" tooltips="1" connect="1" arrows="1" fold="1" page="1" pageScale="1" pageWidth="850" pageHeight="1100" math="0" shadow="0">
      <root>
        <mxCell id="0" />
        <mxCell id="1" parent="0" />
        <mxCell id="pnLnJ_2iHtYTDMWjVPW9-1" value="CLamp" style="swimlane;fontStyle=1;align=center;verticalAlign=top;childLayout=stackLayout;horizontal=1;startSize=26;horizontalStack=0;resizeParent=1;resizeParentMax=0;resizeLast=0;collapsible=1;marginBottom=0;fillColor=#FAE5C7;strokeColor=#0F8B8D;fontColor=#143642;" parent="1" vertex="1">
          <mxGeometry x="340" y="170" width="210" height="170" as="geometry" />
        </mxCell>
        <mxCell id="pnLnJ_2iHtYTDMWjVPW9-2" value="- mutChangePWM : mutex&lt;br&gt;- pwm_val : int&lt;br&gt;+ LampOnTimeoutSecs : int const&lt;br&gt;&lt;br&gt;" style="text;strokeColor=none;fillColor=none;align=left;verticalAlign=top;spacingLeft=4;spacingRight=4;overflow=hidden;rotatable=0;points=[[0,0.5],[1,0.5]];portConstraint=eastwest;fontColor=#143642;fontStyle=0;html=1;" parent="pnLnJ_2iHtYTDMWjVPW9-1" vertex="1">
          <mxGeometry y="26" width="210" height="64" as="geometry" />
        </mxCell>
        <mxCell id="pnLnJ_2iHtYTDMWjVPW9-3" value="" style="line;strokeWidth=1;fillColor=none;align=left;verticalAlign=middle;spacingTop=-1;spacingLeft=3;spacingRight=3;rotatable=0;labelPosition=right;points=[];portConstraint=eastwest;labelBackgroundColor=#DAD2D8;strokeColor=#0F8B8D;fontColor=#143642;" parent="pnLnJ_2iHtYTDMWjVPW9-1" vertex="1">
          <mxGeometry y="90" width="210" height="8" as="geometry" />
        </mxCell>
        <mxCell id="pnLnJ_2iHtYTDMWjVPW9-4" value="+ Lamp(void)&#xa;+ ~Lamp(void)&#xa;&#xa;+ setBrightness(in lux: int) void&#xa;&#xa;&#xa;" style="text;strokeColor=none;fillColor=none;align=left;verticalAlign=top;spacingLeft=4;spacingRight=4;overflow=hidden;rotatable=0;points=[[0,0.5],[1,0.5]];portConstraint=eastwest;fontColor=#143642;" parent="pnLnJ_2iHtYTDMWjVPW9-1" vertex="1">
          <mxGeometry y="98" width="210" height="72" as="geometry" />
        </mxCell>
      </root>
    </mxGraphModel>
  </diagram>
  <diagram id="xVMqxLIBQwNV7bNQTytV" name="Constructor">
    <mxGraphModel dx="1390" dy="306" grid="1" gridSize="10" guides="1" tooltips="1" connect="1" arrows="1" fold="1" page="1" pageScale="1" pageWidth="850" pageHeight="1100" math="0" shadow="0">
      <root>
        <mxCell id="ZppdqG59nGM6C0i3Hnui-0" />
        <mxCell id="ZppdqG59nGM6C0i3Hnui-1" parent="ZppdqG59nGM6C0i3Hnui-0" />
        <mxCell id="ZppdqG59nGM6C0i3Hnui-2" style="edgeStyle=orthogonalEdgeStyle;curved=0;rounded=1;sketch=0;orthogonalLoop=1;jettySize=auto;html=1;exitX=0.5;exitY=1;exitDx=0;exitDy=0;entryX=0.5;entryY=0;entryDx=0;entryDy=0;fontColor=#143642;strokeColor=#A8201A;fillColor=#FAE5C7;" parent="ZppdqG59nGM6C0i3Hnui-1" source="ZppdqG59nGM6C0i3Hnui-3" edge="1">
          <mxGeometry relative="1" as="geometry">
            <mxPoint x="-604.38" y="160" as="targetPoint" />
          </mxGeometry>
        </mxCell>
        <mxCell id="ZppdqG59nGM6C0i3Hnui-3" value="Lamp" style="ellipse;whiteSpace=wrap;html=1;fillColor=#FAE5C7;strokeColor=#0F8B8D;fontColor=#143642;fontStyle=1" parent="ZppdqG59nGM6C0i3Hnui-1" vertex="1">
          <mxGeometry x="-667.63" y="80" width="125.5" height="50" as="geometry" />
        </mxCell>
        <mxCell id="ZppdqG59nGM6C0i3Hnui-4" style="edgeStyle=orthogonalEdgeStyle;curved=0;rounded=1;sketch=0;orthogonalLoop=1;jettySize=auto;html=1;exitX=0.5;exitY=1;exitDx=0;exitDy=0;entryX=0.5;entryY=0;entryDx=0;entryDy=0;fontColor=#143642;strokeColor=#A8201A;fillColor=#FAE5C7;" parent="ZppdqG59nGM6C0i3Hnui-1" source="ZppdqG59nGM6C0i3Hnui-5" edge="1">
          <mxGeometry relative="1" as="geometry">
            <mxPoint x="-604.255" y="290" as="targetPoint" />
          </mxGeometry>
        </mxCell>
        <mxCell id="ZppdqG59nGM6C0i3Hnui-5" value="&lt;div&gt;&lt;b&gt;Init&lt;/b&gt; &lt;i&gt;mutChangePWM&lt;/i&gt;&lt;/div&gt;&lt;div&gt;&lt;i&gt;pwm_val &amp;lt;- 0&lt;br&gt;&lt;/i&gt;&lt;/div&gt;" style="rounded=0;whiteSpace=wrap;html=1;sketch=0;fontColor=#143642;strokeColor=#0F8B8D;fillColor=#FAE5C7;" parent="ZppdqG59nGM6C0i3Hnui-1" vertex="1">
          <mxGeometry x="-679.38" y="220" width="150.25" height="40" as="geometry" />
        </mxCell>
        <mxCell id="ZppdqG59nGM6C0i3Hnui-6" style="edgeStyle=orthogonalEdgeStyle;curved=0;rounded=1;sketch=0;orthogonalLoop=1;jettySize=auto;html=1;exitX=0.5;exitY=1;exitDx=0;exitDy=0;entryX=0.5;entryY=0;entryDx=0;entryDy=0;fontColor=#143642;strokeColor=#A8201A;fillColor=#FAE5C7;" parent="ZppdqG59nGM6C0i3Hnui-1" source="ZppdqG59nGM6C0i3Hnui-7" target="ZppdqG59nGM6C0i3Hnui-5" edge="1">
          <mxGeometry relative="1" as="geometry" />
        </mxCell>
        <mxCell id="ZppdqG59nGM6C0i3Hnui-7" value="&lt;b&gt;initPWM()&lt;/b&gt;" style="shape=process;whiteSpace=wrap;html=1;backgroundOutline=1;rounded=0;sketch=0;fontColor=#143642;strokeColor=#0F8B8D;fillColor=#FAE5C7;" parent="ZppdqG59nGM6C0i3Hnui-1" vertex="1">
          <mxGeometry x="-680" y="160" width="150" height="40" as="geometry" />
        </mxCell>
        <mxCell id="ZppdqG59nGM6C0i3Hnui-8" value="End" style="ellipse;whiteSpace=wrap;html=1;fillColor=#FAE5C7;strokeColor=#0F8B8D;fontColor=#143642;fontStyle=1" parent="ZppdqG59nGM6C0i3Hnui-1" vertex="1">
          <mxGeometry x="-634.12" y="290" width="58.25" height="40" as="geometry" />
        </mxCell>
        <mxCell id="ZppdqG59nGM6C0i3Hnui-9" style="edgeStyle=orthogonalEdgeStyle;curved=0;rounded=1;sketch=0;orthogonalLoop=1;jettySize=auto;html=1;exitX=0.5;exitY=1;exitDx=0;exitDy=0;entryX=0.5;entryY=0;entryDx=0;entryDy=0;fontColor=#143642;strokeColor=#A8201A;fillColor=#FAE5C7;" parent="ZppdqG59nGM6C0i3Hnui-1" source="ZppdqG59nGM6C0i3Hnui-10" edge="1">
          <mxGeometry relative="1" as="geometry">
            <mxPoint x="-403.7600000000001" y="160" as="targetPoint" />
          </mxGeometry>
        </mxCell>
        <mxCell id="ZppdqG59nGM6C0i3Hnui-10" value="~Lamp" style="ellipse;whiteSpace=wrap;html=1;fillColor=#FAE5C7;strokeColor=#0F8B8D;fontColor=#143642;fontStyle=1" parent="ZppdqG59nGM6C0i3Hnui-1" vertex="1">
          <mxGeometry x="-467.01" y="80" width="125.5" height="50" as="geometry" />
        </mxCell>
        <mxCell id="ZppdqG59nGM6C0i3Hnui-11" style="edgeStyle=orthogonalEdgeStyle;curved=0;rounded=1;sketch=0;orthogonalLoop=1;jettySize=auto;html=1;exitX=0.5;exitY=1;exitDx=0;exitDy=0;entryX=0.5;entryY=0;entryDx=0;entryDy=0;fontSize=11;fontColor=#143642;strokeColor=#A8201A;fillColor=#FAE5C7;" parent="ZppdqG59nGM6C0i3Hnui-1" source="ZppdqG59nGM6C0i3Hnui-12" target="ZppdqG59nGM6C0i3Hnui-13" edge="1">
          <mxGeometry relative="1" as="geometry" />
        </mxCell>
        <mxCell id="ZppdqG59nGM6C0i3Hnui-12" value="&lt;b&gt;killPWM()&lt;/b&gt;" style="shape=process;whiteSpace=wrap;html=1;backgroundOutline=1;rounded=0;sketch=0;fontColor=#143642;strokeColor=#0F8B8D;fillColor=#FAE5C7;" parent="ZppdqG59nGM6C0i3Hnui-1" vertex="1">
          <mxGeometry x="-479.38" y="160" width="150" height="40" as="geometry" />
        </mxCell>
        <mxCell id="ZppdqG59nGM6C0i3Hnui-13" value="End" style="ellipse;whiteSpace=wrap;html=1;fillColor=#FAE5C7;strokeColor=#0F8B8D;fontColor=#143642;fontStyle=1" parent="ZppdqG59nGM6C0i3Hnui-1" vertex="1">
          <mxGeometry x="-433.5" y="230" width="58.25" height="40" as="geometry" />
        </mxCell>
      </root>
    </mxGraphModel>
  </diagram>
  <diagram id="vU8sWpJH29Jlqj7GU1nT" name="setBrightness">
    <mxGraphModel dx="1621" dy="437" grid="1" gridSize="10" guides="1" tooltips="1" connect="1" arrows="1" fold="1" page="1" pageScale="1" pageWidth="850" pageHeight="1100" math="0" shadow="0">
      <root>
        <mxCell id="iF5EiazJQ56Jre3fMpjI-0" />
        <mxCell id="iF5EiazJQ56Jre3fMpjI-1" parent="iF5EiazJQ56Jre3fMpjI-0" />
        <mxCell id="iF5EiazJQ56Jre3fMpjI-2" style="edgeStyle=orthogonalEdgeStyle;curved=0;rounded=1;sketch=0;orthogonalLoop=1;jettySize=auto;html=1;exitX=0.5;exitY=1;exitDx=0;exitDy=0;entryX=0.5;entryY=0;entryDx=0;entryDy=0;fontColor=#143642;strokeColor=#A8201A;fillColor=#FAE5C7;" parent="iF5EiazJQ56Jre3fMpjI-1" source="iF5EiazJQ56Jre3fMpjI-3" target="iF5EiazJQ56Jre3fMpjI-5" edge="1">
          <mxGeometry relative="1" as="geometry" />
        </mxCell>
        <mxCell id="iF5EiazJQ56Jre3fMpjI-3" value="&lt;div&gt;setBrightness&lt;/div&gt;&lt;div&gt;&lt;br&gt;&lt;/div&gt;&lt;div&gt;IN: &lt;span style=&quot;font-weight: normal&quot;&gt;&lt;i&gt;lux&lt;/i&gt;&lt;/span&gt;&lt;br&gt;&lt;/div&gt;" style="ellipse;whiteSpace=wrap;html=1;fillColor=#FAE5C7;strokeColor=#0F8B8D;fontColor=#143642;fontStyle=1" parent="iF5EiazJQ56Jre3fMpjI-1" vertex="1">
          <mxGeometry x="-488.25" y="100" width="125.5" height="60" as="geometry" />
        </mxCell>
        <mxCell id="iF5EiazJQ56Jre3fMpjI-4" value="" style="edgeStyle=orthogonalEdgeStyle;curved=0;rounded=1;sketch=0;orthogonalLoop=1;jettySize=auto;html=1;fontColor=#143642;strokeColor=#A8201A;fillColor=#FAE5C7;" parent="iF5EiazJQ56Jre3fMpjI-1" source="iF5EiazJQ56Jre3fMpjI-5" edge="1">
          <mxGeometry relative="1" as="geometry">
            <mxPoint x="-425.1714285714286" y="260" as="targetPoint" />
          </mxGeometry>
        </mxCell>
        <mxCell id="iF5EiazJQ56Jre3fMpjI-5" value="&lt;b&gt;Lock&lt;/b&gt; &lt;i&gt;mutChangePWM&lt;/i&gt;" style="rounded=0;whiteSpace=wrap;html=1;sketch=0;fontColor=#143642;strokeColor=#0F8B8D;fillColor=#FAE5C7;" parent="iF5EiazJQ56Jre3fMpjI-1" vertex="1">
          <mxGeometry x="-500.25" y="200" width="150.25" height="40" as="geometry" />
        </mxCell>
        <mxCell id="iF5EiazJQ56Jre3fMpjI-6" style="edgeStyle=orthogonalEdgeStyle;curved=0;rounded=1;sketch=0;orthogonalLoop=1;jettySize=auto;html=1;exitX=0.5;exitY=1;exitDx=0;exitDy=0;entryX=0.5;entryY=0;entryDx=0;entryDy=0;fontSize=11;fontColor=#143642;strokeColor=#A8201A;fillColor=#FAE5C7;" parent="iF5EiazJQ56Jre3fMpjI-1" source="iF5EiazJQ56Jre3fMpjI-7" target="iF5EiazJQ56Jre3fMpjI-15" edge="1">
          <mxGeometry relative="1" as="geometry" />
        </mxCell>
        <mxCell id="iF5EiazJQ56Jre3fMpjI-7" value="&lt;b&gt;Unlock&lt;/b&gt; &lt;i&gt;mutChangePWM&lt;/i&gt;" style="rounded=0;whiteSpace=wrap;html=1;sketch=0;fontColor=#143642;strokeColor=#0F8B8D;fillColor=#FAE5C7;" parent="iF5EiazJQ56Jre3fMpjI-1" vertex="1">
          <mxGeometry x="-500.5" y="380" width="150" height="40" as="geometry" />
        </mxCell>
        <mxCell id="iF5EiazJQ56Jre3fMpjI-8" style="edgeStyle=orthogonalEdgeStyle;curved=0;rounded=1;sketch=0;orthogonalLoop=1;jettySize=auto;html=1;exitX=0.5;exitY=1;exitDx=0;exitDy=0;entryX=0.5;entryY=0;entryDx=0;entryDy=0;fontColor=#143642;strokeColor=#A8201A;fillColor=#FAE5C7;" parent="iF5EiazJQ56Jre3fMpjI-1" edge="1">
          <mxGeometry relative="1" as="geometry">
            <mxPoint x="-425.25" y="360" as="sourcePoint" />
            <mxPoint x="-425.5" y="380" as="targetPoint" />
          </mxGeometry>
        </mxCell>
        <mxCell id="iF5EiazJQ56Jre3fMpjI-9" value="End" style="ellipse;whiteSpace=wrap;html=1;fillColor=#FAE5C7;strokeColor=#0F8B8D;fontColor=#143642;fontStyle=1" parent="iF5EiazJQ56Jre3fMpjI-1" vertex="1">
          <mxGeometry x="-454.75" y="650" width="58.25" height="40" as="geometry" />
        </mxCell>
        <mxCell id="iF5EiazJQ56Jre3fMpjI-10" value="&lt;b&gt;setPWM&lt;/b&gt;(&lt;i&gt;lux&lt;/i&gt;)" style="shape=process;whiteSpace=wrap;html=1;backgroundOutline=1;rounded=0;sketch=0;fontColor=#143642;strokeColor=#0F8B8D;fillColor=#FAE5C7;" parent="iF5EiazJQ56Jre3fMpjI-1" vertex="1">
          <mxGeometry x="-500" y="320" width="150" height="40" as="geometry" />
        </mxCell>
        <mxCell id="iF5EiazJQ56Jre3fMpjI-11" style="edgeStyle=orthogonalEdgeStyle;rounded=1;sketch=0;orthogonalLoop=1;jettySize=auto;html=1;exitX=0;exitY=0.5;exitDx=0;exitDy=0;fontColor=#143642;strokeColor=#A8201A;fillColor=#FAE5C7;" parent="iF5EiazJQ56Jre3fMpjI-1" source="iF5EiazJQ56Jre3fMpjI-15" target="iF5EiazJQ56Jre3fMpjI-17" edge="1">
          <mxGeometry relative="1" as="geometry">
            <mxPoint x="-530" y="600" as="targetPoint" />
          </mxGeometry>
        </mxCell>
        <mxCell id="iF5EiazJQ56Jre3fMpjI-12" value="Yes" style="edgeLabel;html=1;align=center;verticalAlign=middle;resizable=0;points=[];fontColor=#143642;" parent="iF5EiazJQ56Jre3fMpjI-11" vertex="1" connectable="0">
          <mxGeometry x="-0.6344" y="-1" relative="1" as="geometry">
            <mxPoint as="offset" />
          </mxGeometry>
        </mxCell>
        <mxCell id="iF5EiazJQ56Jre3fMpjI-13" style="edgeStyle=orthogonalEdgeStyle;curved=0;rounded=1;sketch=0;orthogonalLoop=1;jettySize=auto;html=1;exitX=1;exitY=0.5;exitDx=0;exitDy=0;fontSize=11;fontColor=#143642;strokeColor=#A8201A;fillColor=#FAE5C7;entryX=1;entryY=0.5;entryDx=0;entryDy=0;" parent="iF5EiazJQ56Jre3fMpjI-1" source="iF5EiazJQ56Jre3fMpjI-15" target="iF5EiazJQ56Jre3fMpjI-19" edge="1">
          <mxGeometry relative="1" as="geometry">
            <Array as="points">
              <mxPoint x="-320" y="480" />
              <mxPoint x="-320" y="600" />
            </Array>
          </mxGeometry>
        </mxCell>
        <mxCell id="iF5EiazJQ56Jre3fMpjI-14" value="No" style="edgeLabel;html=1;align=center;verticalAlign=middle;resizable=0;points=[];fontSize=11;fontColor=#143642;" parent="iF5EiazJQ56Jre3fMpjI-13" vertex="1" connectable="0">
          <mxGeometry x="-0.8969" y="2" relative="1" as="geometry">
            <mxPoint as="offset" />
          </mxGeometry>
        </mxCell>
        <mxCell id="iF5EiazJQ56Jre3fMpjI-15" value="&lt;div&gt;PWM is&lt;/div&gt;&lt;div&gt;maximum ?&lt;br&gt;&lt;/div&gt;" style="rhombus;whiteSpace=wrap;html=1;rounded=0;sketch=0;fontColor=#143642;strokeColor=#0F8B8D;fillColor=#FAE5C7;" parent="iF5EiazJQ56Jre3fMpjI-1" vertex="1">
          <mxGeometry x="-468.25" y="440" width="85.5" height="80" as="geometry" />
        </mxCell>
        <mxCell id="iF5EiazJQ56Jre3fMpjI-16" style="edgeStyle=orthogonalEdgeStyle;curved=0;rounded=1;sketch=0;orthogonalLoop=1;jettySize=auto;html=1;exitX=0.5;exitY=1;exitDx=0;exitDy=0;entryX=0;entryY=0.5;entryDx=0;entryDy=0;fontSize=11;fontColor=#143642;strokeColor=#A8201A;fillColor=#FAE5C7;" parent="iF5EiazJQ56Jre3fMpjI-1" source="iF5EiazJQ56Jre3fMpjI-17" target="iF5EiazJQ56Jre3fMpjI-19" edge="1">
          <mxGeometry relative="1" as="geometry" />
        </mxCell>
        <mxCell id="iF5EiazJQ56Jre3fMpjI-17" value="&lt;div&gt;&lt;b&gt;setTimer&lt;/b&gt;&lt;/div&gt;&lt;div&gt;(&lt;i&gt;LampOnTimeoutSecs&lt;/i&gt;)&lt;/div&gt;" style="shape=process;whiteSpace=wrap;html=1;backgroundOutline=1;rounded=0;sketch=0;fontColor=#143642;strokeColor=#0F8B8D;fillColor=#FAE5C7;" parent="iF5EiazJQ56Jre3fMpjI-1" vertex="1">
          <mxGeometry x="-620" y="520" width="170" height="40" as="geometry" />
        </mxCell>
        <mxCell id="iF5EiazJQ56Jre3fMpjI-18" style="edgeStyle=orthogonalEdgeStyle;curved=0;rounded=1;sketch=0;orthogonalLoop=1;jettySize=auto;html=1;exitX=0.5;exitY=1;exitDx=0;exitDy=0;entryX=0.5;entryY=0;entryDx=0;entryDy=0;fontSize=11;fontColor=#143642;strokeColor=#A8201A;fillColor=#FAE5C7;" parent="iF5EiazJQ56Jre3fMpjI-1" source="iF5EiazJQ56Jre3fMpjI-19" target="iF5EiazJQ56Jre3fMpjI-9" edge="1">
          <mxGeometry relative="1" as="geometry">
            <mxPoint x="-425.4949999999999" y="640" as="targetPoint" />
            <Array as="points">
              <mxPoint x="-425" y="625" />
              <mxPoint x="-426" y="625" />
            </Array>
          </mxGeometry>
        </mxCell>
        <mxCell id="iF5EiazJQ56Jre3fMpjI-19" value="" style="ellipse;whiteSpace=wrap;html=1;aspect=fixed;rounded=0;sketch=0;fontColor=#143642;strokeColor=#0F8B8D;fillColor=#FAE5C7;" parent="iF5EiazJQ56Jre3fMpjI-1" vertex="1">
          <mxGeometry x="-435" y="590" width="20" height="20" as="geometry" />
        </mxCell>
        <mxCell id="9d5YkTC6i9v7ooaXHAPG-1" value="" style="edgeStyle=orthogonalEdgeStyle;rounded=1;orthogonalLoop=1;jettySize=auto;html=1;strokeColor=#A8201A;" edge="1" parent="iF5EiazJQ56Jre3fMpjI-1" source="9d5YkTC6i9v7ooaXHAPG-0" target="iF5EiazJQ56Jre3fMpjI-10">
          <mxGeometry relative="1" as="geometry" />
        </mxCell>
        <mxCell id="9d5YkTC6i9v7ooaXHAPG-0" value="&lt;i&gt;pwm&lt;/i&gt;_val &amp;lt;- &lt;i&gt;lux&lt;/i&gt;" style="rounded=0;whiteSpace=wrap;html=1;sketch=0;fontColor=#143642;strokeColor=#0F8B8D;fillColor=#FAE5C7;" vertex="1" parent="iF5EiazJQ56Jre3fMpjI-1">
          <mxGeometry x="-500.75" y="260" width="150.25" height="40" as="geometry" />
        </mxCell>
      </root>
    </mxGraphModel>
  </diagram>
</mxfile>
